<?xml version="1.0" standalone="no"?>
<!DOCTYPE svg PUBLIC "-//W3C//DTD SVG 20010904//EN"
 "http://www.w3.org/TR/2001/REC-SVG-20010904/DTD/svg10.dtd">
<svg version="1.0" xmlns="http://www.w3.org/2000/svg"
 width="1024.000000pt" height="1024.000000pt" viewBox="0 0 1024.000000 1024.000000"
 preserveAspectRatio="xMidYMid meet">

<g transform="translate(0.000000,1024.000000) scale(0.100000,-0.100000)"
fill="#000000" stroke="none">
<path d="M3299 8188 c-20 -45 -24 -69 -24 -153 0 -91 3 -106 31 -165 17 -36
56 -93 85 -127 30 -33 69 -85 87 -115 30 -51 32 -60 33 -154 2 -138 9 -149 37
-56 20 67 28 80 54 91 35 16 86 29 143 37 57 9 532 7 645 -2 52 -5 121 -8 153
-8 31 0 57 -4 57 -8 0 -3 21 -5 46 -2 26 2 52 0 59 -6 7 -6 28 -10 46 -9 19 0
70 -4 114 -10 44 -5 154 -9 245 -9 156 2 159 2 60 8 -95 6 -88 6 76 8 132 1
184 -1 193 -10 11 -10 12 -10 7 -1 -7 13 36 12 207 -1 34 -3 125 -8 202 -11
217 -9 426 -35 525 -66 107 -34 228 -95 277 -142 44 -42 55 -60 77 -130 14
-45 40 -147 57 -226 35 -165 66 -255 145 -420 61 -127 85 -196 109 -313 12
-58 18 -138 10 -138 0 0 -54 11 -120 25 -213 45 -405 66 -655 72 -359 9 -501
-12 -895 -134 -117 -36 -124 -37 -280 -37 -146 -1 -169 2 -259 27 -54 16 -120
37 -145 46 -66 26 -198 57 -331 78 -86 13 -173 17 -345 17 -244 0 -408 -15
-650 -59 -205 -37 -225 -39 -225 -24 0 8 9 68 19 134 20 130 32 164 112 331
41 88 149 369 149 390 0 3 -16 -16 -36 -43 -20 -26 -45 -56 -56 -65 -10 -9
-44 -72 -74 -140 -61 -135 -139 -284 -155 -293 -5 -4 -29 3 -52 14 -50 24 -78
67 -103 157 -9 32 -23 82 -31 109 -8 28 -16 60 -18 72 -2 13 -6 40 -9 60 -4
21 -8 56 -10 78 -2 22 -8 74 -12 115 -4 41 -7 79 -6 83 1 5 -2 6 -7 3 -14 -9
-12 -223 4 -378 8 -79 17 -190 21 -248 7 -131 32 -241 77 -346 39 -89 50 -151
28 -146 -10 2 -12 -5 -7 -30 21 -106 26 -153 26 -238 -1 -52 1 -131 4 -175 2
-44 2 -64 -1 -45 -2 19 -9 40 -14 45 -7 7 -8 -3 -4 -30 4 -22 13 -45 21 -51 8
-6 14 -24 14 -40 1 -55 27 -151 64 -238 48 -110 61 -226 30 -264 -38 -45 -122
1 -179 98 -14 25 -24 36 -21 25 24 -98 41 -146 64 -179 43 -62 72 -78 143 -80
l63 -2 48 -169 c129 -445 291 -729 602 -1054 65 -67 69 -75 52 -85 -10 -6 -34
-21 -53 -33 -18 -13 -46 -26 -61 -29 -32 -7 -320 -99 -472 -151 -275 -93 -504
-199 -672 -310 -173 -113 -354 -336 -476 -584 -34 -68 -77 -171 -96 -229 -61
-185 -136 -563 -136 -684 0 -65 12 -71 210 -100 54 -8 334 -34 440 -41 52 -3
138 -10 190 -16 406 -39 2333 -69 3290 -50 565 11 1169 37 1415 61 55 5 152
12 215 15 143 8 451 42 505 56 55 15 65 26 65 71 0 136 -89 563 -155 748 -100
276 -278 547 -455 691 -233 189 -392 275 -705 383 -312 107 -569 186 -604 186
-12 0 -31 5 -42 11 -19 9 -13 18 73 107 312 326 523 677 623 1042 15 52 33
119 41 148 l15 52 60 0 c75 0 129 26 169 82 30 41 94 220 87 242 -2 6 -10 -7
-17 -29 -7 -22 -24 -63 -37 -92 -21 -43 -32 -54 -73 -72 -27 -12 -58 -21 -69
-21 -32 0 -61 35 -61 73 0 39 45 194 82 282 14 33 33 96 43 140 9 44 30 136
46 204 16 68 28 128 27 133 -2 6 -15 -21 -28 -59 l-25 -68 -3 139 c-3 153 8
231 39 270 11 14 16 26 10 26 -6 0 -11 -4 -11 -10 0 -5 -5 -10 -10 -10 -6 0
-2 12 9 28 32 44 78 228 102 409 18 138 22 219 23 455 1 217 -2 290 -11 299
-11 10 -13 -6 -14 -82 -2 -178 -30 -348 -85 -514 -38 -116 -52 -154 -97 -257
-25 -58 -32 -50 -168 161 -105 163 -207 376 -229 476 -19 90 -43 323 -34 337
3 5 64 8 135 8 173 0 167 18 -36 100 -80 32 -92 41 -111 76 -26 51 -78 70
-325 119 -101 20 -251 55 -334 77 -421 111 -490 123 -559 94 -19 -8 -37 -11
-41 -8 -4 4 -12 0 -18 -8 -14 -17 -73 -40 -104 -40 -12 0 -24 -7 -27 -16 -4
-11 -10 -13 -19 -6 -6 5 -21 8 -32 7 -11 -1 -55 -5 -97 -9 -43 -4 -78 -12 -78
-16 0 -5 -16 -6 -35 -3 -19 3 -41 1 -48 -5 -18 -15 -162 -16 -342 -2 -150 11
-168 13 -215 24 -14 3 -43 8 -65 11 -65 9 -199 40 -240 55 -11 4 -60 20 -110
34 -49 15 -105 32 -123 37 -17 6 -46 11 -62 11 -17 1 -30 4 -30 8 0 7 -46 20
-90 26 -33 4 -70 13 -78 18 -11 6 -53 15 -115 23 -36 4 -51 2 -57 -8 -8 -11
-10 -11 -15 1 -4 12 -21 14 -81 12 l-75 -4 -35 37 c-42 45 -44 77 -8 180 31
90 27 108 -7 33z m2101 -478 c0 -5 -4 -10 -10 -10 -5 0 -10 5 -10 10 0 6 5 10
10 10 6 0 10 -4 10 -10z m-240 -20 c0 -5 -4 -10 -10 -10 -5 0 -10 5 -10 10 0
6 5 10 10 10 6 0 10 -4 10 -10z m140 0 c0 -5 -4 -10 -10 -10 -5 0 -10 5 -10
10 0 6 5 10 10 10 6 0 10 -4 10 -10z m-920 -1695 c231 -38 321 -82 373 -180
45 -86 18 -277 -62 -430 -47 -90 -141 -187 -215 -221 -123 -56 -291 -75 -495
-54 -202 21 -332 69 -405 151 -88 98 -156 287 -164 457 -4 95 -2 106 22 155
18 37 37 59 63 74 49 27 169 52 303 63 151 12 468 4 580 -15z m2125 1 c142
-31 199 -69 226 -151 36 -107 -7 -362 -86 -516 -24 -46 -83 -107 -131 -135
-119 -70 -434 -105 -634 -70 -232 41 -370 173 -449 430 -25 80 -28 209 -7 259
38 92 189 153 477 192 136 18 503 13 604 -9z m509 -300 c15 -33 18 -54 12
-122 -12 -154 -134 -862 -172 -994 -25 -88 -102 -279 -140 -346 -19 -33 -34
-68 -34 -77 0 -10 -4 -17 -9 -17 -5 0 -16 -15 -25 -32 -9 -18 -25 -44 -35 -58
-10 -14 -43 -59 -73 -100 -30 -41 -71 -93 -91 -115 -20 -22 -37 -44 -37 -49 0
-10 -290 -298 -290 -288 0 3 -12 -8 -27 -24 -45 -49 -230 -178 -333 -232 -111
-58 -240 -102 -395 -132 -137 -26 -373 -29 -513 -6 -113 19 -313 85 -402 133
-61 33 -97 59 -275 196 -87 67 -348 326 -407 403 -61 80 -148 204 -182 261
-34 55 -116 220 -116 233 0 4 -3 10 -8 12 -4 2 -15 26 -24 53 -10 28 -31 91
-48 140 -38 109 -97 375 -115 516 -2 19 -13 75 -24 125 -44 200 -46 293 -7
424 l13 43 38 -104 c94 -258 180 -388 308 -463 115 -68 425 -109 655 -88 273
24 406 94 526 275 65 98 95 163 131 288 31 107 67 184 89 192 39 15 113 18
151 5 48 -16 69 -50 121 -198 83 -236 180 -380 313 -464 107 -68 291 -100 531
-93 184 5 309 24 417 63 138 49 214 164 312 468 53 161 72 208 98 238 15 16
17 16 32 -5 10 -12 25 -40 35 -61z m150 -2 c-12 -5 -7 -52 8 -71 7 -9 6 -14
-4 -18 -9 -4 -13 -16 -10 -34 3 -20 0 -28 -11 -28 -12 0 -15 9 -11 36 3 20 5
52 6 71 1 41 5 50 21 49 8 0 8 -2 1 -5z"/>
<path d="M3976 5950 c-113 -29 -246 -130 -305 -233 -41 -71 -40 -94 1 -32 47
71 135 162 184 191 39 23 164 68 164 59 0 -3 -19 -15 -42 -29 -106 -62 -159
-152 -160 -271 0 -64 4 -81 32 -134 46 -86 103 -135 185 -160 37 -12 81 -21
99 -20 30 1 30 1 -8 10 -90 21 -176 91 -176 144 0 21 25 18 112 -14 46 -17 66
-19 99 -12 81 18 138 79 173 184 7 23 29 22 52 -4 14 -16 19 -36 19 -85 l0
-63 20 37 c15 29 20 56 20 122 0 73 -4 92 -27 137 -36 68 -90 120 -157 151
-44 20 -74 26 -150 28 -53 2 -113 -1 -135 -6z m94 -75 c58 -30 65 -77 19 -130
-25 -29 -38 -35 -69 -35 -30 0 -43 6 -59 26 -31 39 -27 76 13 118 37 40 53 43
96 21z"/>
<path d="M6040 5962 c22 -7 20 -9 -20 -16 -94 -15 -203 -112 -236 -209 -27
-79 -23 -174 12 -237 60 -111 153 -170 264 -169 l65 0 -75 20 c-90 25 -135 51
-156 91 -19 37 -11 78 16 78 10 0 22 -5 25 -10 11 -17 78 -47 122 -55 79 -13
162 45 204 142 26 62 50 54 67 -24 17 -76 -26 -150 -118 -199 -25 -14 -34 -22
-20 -18 70 18 127 73 168 162 21 47 24 64 20 136 -7 127 -58 214 -156 266
l-37 19 35 -5 c19 -3 68 -22 108 -41 84 -42 164 -121 206 -204 32 -66 35 -42
2 26 -33 70 -85 126 -164 178 -91 60 -119 68 -247 73 -62 2 -99 0 -85 -4z m93
-9 c-7 -2 -19 -2 -25 0 -7 3 -2 5 12 5 14 0 19 -2 13 -5z m44 -9 c-3 -3 -12
-4 -19 -1 -8 3 -5 6 6 6 11 1 17 -2 13 -5z m-93 -75 c34 -27 34 -68 0 -108
-50 -60 -154 -32 -154 40 0 72 95 114 154 68z"/>
<path d="M6138 5343 c7 -3 16 -2 19 1 4 3 -2 6 -13 5 -11 0 -14 -3 -6 -6z"/>
<path d="M4670 4685 c-1 -79 80 -170 205 -230 102 -50 155 -64 235 -65 160 0
361 105 411 215 23 51 26 94 3 53 -18 -34 -36 -44 -99 -53 -27 -4 -85 -20
-127 -36 -106 -39 -185 -46 -288 -25 -46 10 -100 24 -120 32 -19 9 -59 20 -89
24 -59 10 -95 36 -117 85 l-13 30 -1 -30z"/>
<path d="M5706 4153 c-3 -4 -288 -6 -632 -5 -345 2 -635 0 -645 -3 -51 -16 13
-52 168 -95 163 -44 313 -63 503 -63 244 1 527 50 652 114 34 17 38 23 27 34
-17 15 -64 27 -73 18z"/>
<path d="M5288 7493 c7 -3 16 -2 19 1 4 3 -2 6 -13 5 -11 0 -14 -3 -6 -6z"/>
<path d="M7372 7390 c0 -14 2 -19 5 -12 2 6 2 18 0 25 -3 6 -5 1 -5 -13z"/>
<path d="M7377 7329 c4 -13 8 -18 11 -10 2 7 -1 18 -6 23 -8 8 -9 4 -5 -13z"/>
<path d="M2850 7101 c0 -12 5 -21 10 -21 6 0 10 6 10 14 0 8 -4 18 -10 21 -5
3 -10 -3 -10 -14z"/>
<path d="M4045 6518 c-123 -11 -229 -39 -329 -88 -137 -67 -213 -149 -186
-200 19 -36 55 -34 230 9 282 70 347 73 623 29 125 -20 141 -21 165 -7 24 13
27 21 30 74 3 73 -11 103 -61 131 -74 41 -308 67 -472 52z"/>
<path d="M5865 6506 c-117 -23 -154 -36 -186 -64 -58 -52 -57 -158 2 -182 26
-11 50 -10 162 10 224 40 375 31 642 -41 133 -35 169 -37 189 -8 49 70 -135
212 -349 269 -103 28 -354 36 -460 16z"/>
<path d="M7478 5888 c-17 -14 -31 -58 -18 -58 5 0 10 -14 12 -32 5 -56 25 -43
32 23 8 66 0 87 -26 67z"/>
<path d="M2770 5779 c0 -30 3 -39 9 -30 5 8 7 26 4 40 -7 42 -13 37 -13 -10z"/>
<path d="M2782 5700 c0 -19 2 -27 5 -17 2 9 2 25 0 35 -3 9 -5 1 -5 -18z"/>
<path d="M2792 5625 c0 -16 2 -22 5 -12 2 9 2 23 0 30 -3 6 -5 -1 -5 -18z"/>
<path d="M2947 5616 c3 -15 10 -29 15 -32 6 -4 7 2 3 17 -10 35 -23 45 -18 15z"/>
<path d="M2975 5530 c3 -5 8 -10 11 -10 2 0 4 5 4 10 0 6 -5 10 -11 10 -5 0
-7 -4 -4 -10z"/>
</g>
</svg>
